<?xml version="1.0" encoding="utf-8"?>
<!-- Generator: Adobe Illustrator 15.0.0, SVG Export Plug-In . SVG Version: 6.00 Build 0)  -->
<!DOCTYPE svg PUBLIC "-//W3C//DTD SVG 1.1//EN" "http://www.w3.org/Graphics/SVG/1.1/DTD/svg11.dtd">
<svg version="1.1" id="Calque_1" xmlns="http://www.w3.org/2000/svg" xmlns:xlink="http://www.w3.org/1999/xlink" x="0px" y="0px"
	 width="425.2px" height="410.31px" viewBox="0 0 425.2 410.31" enable-background="new 0 0 425.2 410.31" xml:space="preserve">
<path fill="#1A4C95" d="M425.059,173.548c-0.449-24.603-3.398-50.149-10.906-74.653c-7.403-23.603-20.035-49.923-45.296-68.721
	l-0.579-0.41l-0.17-0.123c-5.746-3.981-11.666-7.257-17.688-10.009l-5.215,72.707c21.618,23.331,35.385,53.622,35.431,86.936v1.017
	l-0.009,0.092c-0.268,40.583-20.817,76.507-51.181,101.088c-30.616,24.881-71.554,39.504-116.088,39.62l-0.636,0.005l-0.159-0.005
	h-0.015c-44.458-0.098-85.27-14.596-115.841-39.335C66.082,257.084,45.393,220.87,45.34,179.926v-0.043v-0.208v-0.069
	c0.005-40.92,20.624-77.146,51.185-101.872c30.489-24.761,71.187-39.362,115.561-39.614c0.419-0.01,0.754-0.01,0.905-0.01
	c0.173,0,0.333,0.005,0.377,0.005c14.048,0.005,27.688,1.505,40.741,4.272l67.632-32.324c-8.376-1.992-16.83-3.507-25.278-4.904
	c-25.528-3.788-54.032-5.311-83.021-4.928c-32.295,0.544-65.12,3.458-95.209,9.68C90.528,16.14,60.538,24.136,36.308,47.604
	l-0.561,0.559l-0.253,0.27l-0.029,0.056C17.125,68.045,9.88,91.337,5.489,111.383l-0.039,0.263
	c-4.405,21.166-5.82,43.326-5.514,65.258c0.804,36.905,5.855,73.417,18.215,103.793c4.074,9.653,10.246,21.687,21.561,32.843
	c22.271,20.967,49.696,31.107,76.799,37.717l4.715,59.229l58.89-50.183c11.637,0.675,23.353,0.925,35.03,0.751
	c32.053-0.516,63.932-4.047,92.759-11.089l4.364-1.083l0.238-0.149c26.29-7.053,53.187-17.163,74.667-38.483l0.509-0.477
	l0.424-0.472c18.024-19.547,24.926-42.688,29.995-63.814C423.039,223.283,425.412,198.695,425.059,173.548"/>
<path fill="#D0212C" d="M314.648,104.071l5.6-59.398L256.762,73.45c-13.832-3.76-28.613-5.816-43.999-5.775
	c-75.956,0.156-137.448,50.281-137.308,111.958c0.118,61.7,61.809,111.571,137.756,111.412
	c75.965-0.146,137.446-50.28,137.32-111.958C350.465,150.167,336.887,123.861,314.648,104.071"/>
<polygon fill="#FFFFFF" points="184.553,218.153 167.787,218.153 167.787,170.868 147.477,211.92 137.481,211.92 117.279,170.868 
	117.279,218.153 100.514,218.153 100.514,143.038 123.192,143.038 142.531,184.305 161.988,143.038 184.553,143.038 "/>
<path fill="#FFFFFF" d="M302.486,219.016c-11.572,0-21.096-3.656-28.584-10.961c-7.488-7.31-11.23-16.529-11.23-27.671
	c0-11.14,3.816-20.431,11.447-27.891c7.625-7.447,16.958-11.175,27.986-11.175c12.322,0,22.642,4.693,30.947,14.082l-10.422,11.823
	c-5.299-6.597-11.889-9.892-19.77-9.892c-6.31,0-11.695,2.062-16.17,6.183c-4.473,4.119-6.717,9.672-6.717,16.657
	c0,6.98,2.109,12.587,6.349,16.813c4.222,4.228,9.347,6.339,15.354,6.339c8.245,0,14.975-3.256,20.203-9.776l10.742,11.07
	C324.096,214.214,314.055,219.016,302.486,219.016"/>
<path fill="#FFFFFF" d="M259.795,212.311c-4.232-3.95-7.709-7.334-10.457-10.149c2.274-3.596,4.321-7.765,6.121-12.505l0.133-0.345
	l-8.701-6.142l-0.183,0.631c-1.187,4.048-2.825,7.616-4.9,10.713c-3.548-3.68-8.142-8.981-13.804-15.913
	c11.23-6.181,16.891-12.742,16.973-19.685h0.004v-0.168c0.005-5.233-1.986-9.302-5.936-12.204c-3.967-2.9-8.781-4.345-14.435-4.345
	c-5.657,0-10.575,1.52-14.748,4.562c-4.173,3.044-6.259,7.398-6.259,13.054c0,3.253,0.575,5.937,1.751,8.068
	c1.167,2.118,3.201,4.839,6.1,8.169h-0.004c-11.592,6.219-17.397,13.327-17.402,21.322c0,0,0.005,0.075,0.015,0.104
	c-0.015,6.619,2.427,11.907,7.299,15.761c4.889,3.862,10.793,5.785,17.727,5.785c9.333,0,17.112-2.861,23.348-8.594l9.767,9.653
	l7.955-7.428L259.795,212.311z M217.848,153.471l0.154,0.183v-0.005l-0.154-0.184c1.948-1.548,4.178-2.333,6.695-2.338h-0.041
	l0.108-0.005c2.456,0.005,4.677,0.729,6.636,2.17c1.996,1.459,2.998,3.718,2.998,6.664v0.005l-0.01,0.023h-0.094l0.104,0.056
	c-0.084,3.705-4.292,7.433-12.49,11.522l-0.171,0.069l-0.108-0.14h-0.005c-2.409-2.914-4.1-5.197-5.096-6.852
	c-0.993-1.662-1.501-3.516-1.495-5.626l-0.011-0.075C214.879,156.86,215.894,155.005,217.848,153.471z M234.949,202.761
	c-5.055,4.126-9.841,6.207-14.373,6.212c-4.489-0.005-8.119-1.021-10.862-3.074c-2.727-2.042-4.124-4.726-4.124-7.962v-0.024
	c0-5.301,4.099-10.101,12.114-14.432l0.169-0.094l0.128,0.152c4.166,5.086,9.824,11.38,16.967,18.873l0.039,0.043l0.149,0.14
	L234.949,202.761z"/>
</svg>
