<?xml version="1.0" encoding="utf-8"?>
<!-- Generator: Adobe Illustrator 15.0.0, SVG Export Plug-In . SVG Version: 6.00 Build 0)  -->
<!DOCTYPE svg PUBLIC "-//W3C//DTD SVG 1.1//EN" "http://www.w3.org/Graphics/SVG/1.1/DTD/svg11.dtd">
<svg version="1.1" id="Calque_1" xmlns="http://www.w3.org/2000/svg" xmlns:xlink="http://www.w3.org/1999/xlink" x="0px" y="0px"
	 width="311.81px" height="300.89px" viewBox="0 0 311.81 300.89" enable-background="new 0 0 311.81 300.89" xml:space="preserve">
<g>
	<path fill="#1C4B95" d="M309.703,127.663c-0.335-17.722-2.453-36.112-7.852-53.752c-5.341-17.001-14.433-35.945-32.614-49.485
		l-0.423-0.293l-0.119-0.089c-4.145-2.863-8.393-5.221-12.738-7.204l-3.758,52.348c15.575,16.793,25.483,38.601,25.521,62.591v0.743
		l-0.016,0.06c-0.192,29.212-14.98,55.081-36.847,72.788c-22.045,17.908-51.509,28.439-83.581,28.521h-0.459h-0.113h-0.007
		c-32.004-0.073-61.395-10.517-83.417-28.327c-22.044-17.752-36.943-43.837-36.98-73.316v-0.03c0-0.148,0-0.148,0-0.148v-0.045
		c0.007-29.457,14.847-55.549,36.854-73.356c21.956-17.822,51.257-28.332,83.202-28.513l0,0c0.296-0.012,0.549-0.012,0.654-0.012
		c0.126,0,0.238,0.004,0.274,0.004c10.108,0.008,19.928,1.085,29.323,3.079l48.701-23.277c-6.029-1.433-12.113-2.525-18.204-3.531
		c-18.375-2.723-38.898-3.822-59.76-3.547c-23.256,0.394-46.897,2.496-68.556,6.966c-19.95,4.49-41.541,10.25-58.996,27.144
		l-0.401,0.401l-0.179,0.196l-0.022,0.042C15.986,51.699,10.772,68.463,7.615,82.897l-0.03,0.193
		c-3.179,15.234-4.189,31.188-3.974,46.979c0.572,26.575,4.211,52.868,13.109,74.727c2.934,6.96,7.375,15.621,15.53,23.649
		c16.036,15.107,35.771,22.393,55.29,27.169l3.402,42.634l42.396-36.127c8.379,0.483,16.816,0.668,25.223,0.535
		c23.085-0.364,46.036-2.912,66.779-7.978l3.15-0.78l0.171-0.111c18.926-5.08,38.302-12.352,53.767-27.704l0.356-0.349l0.312-0.343
		c12.977-14.074,17.952-30.727,21.592-45.938C308.246,163.471,309.947,145.756,309.703,127.663z"/>
	<path fill="#D2232C" d="M158.369,117.19c0,1.523,0.357,2.853,1.077,4.048c0.714,1.204,1.938,2.845,3.662,4.947h0.014l0.074,0.096
		l0.119-0.044c5.905-2.95,8.936-5.638,8.995-8.312l-0.074-0.029h0.066l0.008-0.015v-0.007c0-2.117-0.721-3.751-2.162-4.806
		c-1.403-1.032-3.009-1.56-4.769-1.56l-0.081,0.007l0.029-0.007c-1.819,0.007-3.417,0.579-4.813,1.686l0.097,0.142l0,0l-0.097-0.134
		c-1.418,1.106-2.146,2.443-2.146,3.943v0.052V117.19z M230.206,77.632l4.034-42.763l-45.716,20.723
		c-9.953-2.711-20.597-4.189-31.678-4.16c-54.688,0.108-98.962,36.205-98.866,80.606c0.082,44.423,44.513,80.334,99.193,80.224
		c54.688-0.111,98.956-36.21,98.866-80.625C255.994,110.825,246.206,91.885,230.206,77.632z M136.533,159.779h-12.07v-34.055
		l-14.617,29.569h-7.197l-14.55-29.569v34.055H76.021v-54.086h16.333l13.926,29.709l14-29.709h16.251V159.779z M185.241,161.153
		l-7.035-6.946c-4.485,4.131-10.078,6.203-16.813,6.203c-4.978,0-9.233-1.396-12.754-4.166c-3.505-2.779-5.266-6.596-5.258-11.357
		c-0.007-0.022-0.007-0.074-0.007-0.082c0-5.741,4.182-10.874,12.53-15.345h0.008c-2.103-2.392-3.558-4.359-4.398-5.883
		c-0.846-1.529-1.27-3.46-1.27-5.8c0-4.085,1.507-7.219,4.515-9.403c3.009-2.183,6.545-3.283,10.621-3.283
		c4.063,0,7.531,1.04,10.384,3.127c2.853,2.094,4.285,5.013,4.285,8.779v0.134h-0.006c-0.061,4.991-4.131,9.722-12.22,14.164
		c4.071,4.984,7.384,8.816,9.924,11.46c1.507-2.229,2.688-4.806,3.543-7.703l0.126-0.468l6.262,4.419l-0.09,0.26
		c-1.299,3.409-2.771,6.41-4.403,8.995c1.981,2.028,4.471,4.457,7.531,7.309l0.259,0.253L185.241,161.153z M221.449,160.403
		c-8.333,0-15.188-2.637-20.588-7.903c-5.393-5.266-8.081-11.899-8.081-19.92c0-8.015,2.749-14.707,8.251-20.077
		c5.488-5.362,12.203-8.043,20.144-8.043c8.876,0,16.304,3.379,22.282,10.138l-7.501,8.504c-3.817-4.753-8.558-7.123-14.232-7.123
		c-4.545,0-8.429,1.485-11.645,4.456c-3.225,2.949-4.836,6.959-4.836,11.988s1.515,9.069,4.56,12.115
		c3.046,3.03,6.737,4.561,11.066,4.561c5.937,0,10.778-2.348,14.543-7.042l7.733,7.977
		C237.01,156.927,229.769,160.403,221.449,160.403z M172.83,148.444c-5.139-5.399-9.21-9.93-12.21-13.591l-0.09-0.104l-0.126,0.06
		c-5.765,3.119-8.72,6.588-8.72,10.398v0.015c0,2.325,1.002,4.256,2.963,5.726c1.976,1.486,4.591,2.206,7.829,2.206
		c3.261,0,6.706-1.5,10.339-4.463l0.156-0.112l-0.104-0.111L172.83,148.444z"/>
</g>
</svg>
