<?xml version="1.0" encoding="utf-8"?>
<!-- Generator: Adobe Illustrator 15.0.0, SVG Export Plug-In . SVG Version: 6.00 Build 0)  -->
<!DOCTYPE svg PUBLIC "-//W3C//DTD SVG 1.1//EN" "http://www.w3.org/Graphics/SVG/1.1/DTD/svg11.dtd">
<svg version="1.1" id="Calque_1" xmlns="http://www.w3.org/2000/svg" xmlns:xlink="http://www.w3.org/1999/xlink" x="0px" y="0px"
	 width="566.93px" height="105.89px" viewBox="0 0 566.93 105.89" enable-background="new 0 0 566.93 105.89" xml:space="preserve">
<g>
	<g>
		<path fill="#1A4C95" d="M109.612,44.128c-0.115-6.349-0.877-12.941-2.814-19.265c-1.911-6.091-5.17-12.883-11.689-17.734
			L94.96,7.023l-0.044-0.032c-1.483-1.027-3.011-1.873-4.564-2.583l-1.346,18.763c5.579,6.021,9.131,13.838,9.143,22.435v0.263
			l-0.002,0.023c-0.069,10.473-5.372,19.744-13.208,26.086c-7.901,6.421-18.465,10.194-29.958,10.225l-0.164,0.001l-0.041-0.001
			h-0.004C43.3,82.178,32.768,78.437,24.879,72.052c-7.903-6.366-13.242-15.712-13.256-26.278v-0.011v-0.053v-0.018
			c0.001-10.56,5.322-19.908,13.209-26.289C32.7,13.013,43.202,9.245,54.653,9.18c0.108-0.002,0.194-0.002,0.233-0.002
			c0.045,0,0.086,0.001,0.098,0.001c3.625,0.001,7.145,0.389,10.514,1.103l17.453-8.342c-2.162-0.514-4.343-0.905-6.523-1.265
			C69.84-0.304,62.484-0.696,55.003-0.598C46.669-0.457,38.198,0.295,30.434,1.9c-7.149,1.607-14.889,3.671-21.142,9.727
			l-0.145,0.144l-0.065,0.07l-0.007,0.014c-4.733,5.047-6.602,11.058-7.735,16.23l-0.01,0.068
			c-1.137,5.462-1.502,11.181-1.423,16.84c0.208,9.523,1.511,18.945,4.7,26.784c1.052,2.491,2.645,5.597,5.564,8.476
			c5.747,5.411,12.824,8.027,19.818,9.733l1.217,15.284l15.197-12.95c3.003,0.174,6.026,0.239,9.04,0.194
			c8.271-0.133,16.498-1.045,23.937-2.862l1.126-0.279l0.062-0.038c6.785-1.82,13.725-4.43,19.269-9.932l0.131-0.122l0.109-0.122
			c4.651-5.045,6.432-11.017,7.74-16.468C109.092,56.963,109.704,50.618,109.612,44.128"/>
		<path fill="#D0212C" d="M81.12,26.199l1.445-15.328l-16.383,7.426c-3.569-0.97-7.384-1.501-11.354-1.49
			c-19.601,0.04-35.47,12.976-35.434,28.892c0.03,15.922,15.95,28.792,35.549,28.751c19.604-0.038,35.47-12.976,35.437-28.892
			C90.363,38.094,86.859,31.306,81.12,26.199"/>
		<path fill="#1A4C95" d="M135.499,34.878l-10.413-21.663h-9.08v34.495h5.825V20.765l11.992,23.936h3.256l12.041-23.936v26.946
			h5.824V13.216h-9.031L135.499,34.878z M172.461,13.216l-15.199,34.495h6.218l3.456-7.848h17.272l3.456,7.848h6.217l-15.2-34.495
			H172.461z M169.305,34.486l6.268-14.214l6.267,14.214H169.305z M196.198,47.711h5.823V13.214h-5.823V47.711z M236.667,24.417
			c0-3.915-1.136-6.76-3.405-8.537c-2.271-1.776-6.039-2.664-11.302-2.664h-12.831v34.495h5.824V36.114h7.647l8.243,11.597h7.401
			l-9.032-12.535C234.183,33.695,236.667,30.11,236.667,24.417 M222.206,30.833h-7.253V18.496h7.4c3.125,0,5.297,0.42,6.516,1.257
			c1.216,0.84,1.826,2.387,1.826,4.64c0,2.254-0.592,3.892-1.777,4.91C227.734,30.323,225.496,30.833,222.206,30.833
			 M248.411,33.005h16.533v-5.184h-16.533v-9.129h18.409v-5.477h-24.232v34.495h24.824v-5.477h-19V33.005z M293.592,31.129
			c-1.795-1.545-4.459-2.747-7.996-3.604c-3.538-0.853-5.848-1.652-6.934-2.393c-1.087-0.74-1.629-1.809-1.629-3.208
			c0-1.398,0.542-2.443,1.629-3.133c1.086-0.691,2.476-1.037,4.168-1.037c1.696,0,3.414,0.296,5.159,0.888
			c1.744,0.592,3.124,1.35,4.147,2.27l3.105-4.393c-1.577-1.315-3.453-2.333-5.625-3.059c-2.171-0.723-4.357-1.086-6.562-1.086
			c-3.423,0-6.293,0.864-8.612,2.592c-2.32,1.726-3.479,4.186-3.479,7.377c0,3.191,1.018,5.56,3.06,7.107
			c1.019,0.823,2.186,1.489,3.502,1.997c1.317,0.512,3.242,1.069,5.775,1.679c2.532,0.609,4.317,1.285,5.355,2.024
			c1.035,0.741,1.554,1.776,1.554,3.108c0,1.331-0.552,2.401-1.654,3.208c-1.103,0.807-2.59,1.209-4.467,1.209
			c-3.75,0-7.369-1.512-10.855-4.54l-3.652,4.393c4.177,3.718,8.966,5.577,14.36,5.577c3.685,0,6.662-0.938,8.933-2.813
			c2.27-1.875,3.406-4.318,3.406-7.329C296.281,34.954,295.385,32.675,293.592,31.129"/>
		<path fill="#D0212C" d="M351.168,18.101c1.974,0,3.691,0.312,5.158,0.937c1.463,0.628,3.018,1.728,4.664,3.307l3.701-4.048
			c-3.588-3.949-8.055-5.921-13.398-5.921c-5.348,0-9.772,1.71-13.275,5.133c-3.504,3.42-5.255,7.698-5.255,12.831
			c0,5.131,1.717,9.376,5.155,12.733c3.438,3.355,7.764,5.033,12.978,5.033s9.648-2.022,13.302-6.072l-3.749-3.848
			c-1.581,1.48-3.097,2.559-4.542,3.233c-1.447,0.674-3.178,1.009-5.182,1.009c-3.225,0-6.015-1.173-8.367-3.527
			c-2.354-2.352-3.527-5.28-3.527-8.784c0-3.504,1.184-6.382,3.555-8.637C344.754,19.228,347.681,18.101,351.168,18.101
			 M368.834,47.711h5.824V13.214h-5.824V47.711z M378.509,18.543h10.46v29.167h5.824V18.543h10.461v-5.328h-26.745V18.543z
			 M424.106,12.375c-5.134,0-9.442,1.703-12.931,5.108c-3.486,3.405-5.229,7.649-5.229,12.733c0,5.083,1.743,9.326,5.229,12.733
			c3.488,3.405,7.797,5.105,12.931,5.105s9.442-1.7,12.929-5.105c3.487-3.407,5.232-7.65,5.232-12.733
			c0-5.084-1.745-9.328-5.232-12.733C433.549,14.079,429.24,12.375,424.106,12.375 M432.766,39.075
			c-2.351,2.435-5.238,3.651-8.659,3.651c-3.422,0-6.309-1.217-8.659-3.651c-2.354-2.434-3.53-5.388-3.53-8.858
			c0-3.472,1.176-6.424,3.53-8.86c2.351-2.432,5.237-3.65,8.659-3.65c3.421,0,6.309,1.218,8.659,3.65
			c2.354,2.436,3.53,5.388,3.53,8.86C436.296,33.687,435.12,36.641,432.766,39.075 M456.629,28.909l-9.427-15.693h-6.367
			l12.831,20.874v13.621h5.922V34.09l12.831-20.874h-6.367L456.629,28.909z M480.167,33.005h16.534v-5.184h-16.534v-9.129h18.408
			v-5.477h-24.231v34.495h24.824v-5.477h-19.001V33.005z M530.011,38.977l-20.038-25.761h-5.821v34.495h5.821V22.542l19.545,25.169
			h6.316V13.216h-5.823V38.977z M564.137,31.129c-1.795-1.545-4.459-2.747-7.996-3.604c-3.536-0.853-5.848-1.652-6.934-2.393
			c-1.086-0.74-1.627-1.809-1.627-3.208c0-1.398,0.541-2.443,1.627-3.133c1.086-0.691,2.477-1.037,4.172-1.037
			c1.691,0,3.411,0.296,5.155,0.888c1.743,0.592,3.126,1.35,4.146,2.27l3.109-4.393c-1.58-1.315-3.455-2.333-5.627-3.059
			c-2.169-0.723-4.357-1.086-6.562-1.086c-3.422,0-6.291,0.864-8.609,2.592c-2.321,1.726-3.48,4.186-3.48,7.377
			c0,3.191,1.019,5.56,3.059,7.107c1.021,0.823,2.188,1.489,3.506,1.997c1.313,0.512,3.238,1.069,5.771,1.679
			c2.533,0.609,4.319,1.285,5.355,2.024c1.037,0.741,1.555,1.776,1.555,3.108c0,1.331-0.553,2.401-1.654,3.208
			c-1.104,0.807-2.59,1.209-4.466,1.209c-3.75,0-7.37-1.512-10.856-4.54l-3.652,4.393c4.178,3.718,8.966,5.577,14.361,5.577
			c3.686,0,6.664-0.938,8.934-2.813c2.269-1.875,3.403-4.318,3.403-7.329C566.825,34.954,565.929,32.675,564.137,31.129"/>
		<polygon fill="#718489" points="312.464,27.527 312.464,30.748 301.641,30.748 301.641,36.117 311.361,36.117 311.361,39.163 
			301.641,39.163 301.641,44.589 312.811,44.589 312.811,47.811 298.217,47.811 298.217,27.527 		"/>
		<polygon fill="#718489" points="324.854,30.661 324.854,47.811 321.43,47.811 321.43,30.661 315.279,30.661 315.279,27.527 
			331.006,27.527 331.006,30.661 		"/>
		<rect x="115.754" y="58.194" fill="#718489" width="451.071" height="28.669"/>
		<path fill="#FFFFFF" d="M140.148,78.469c0.927,1.082,2.182,1.621,3.765,1.621c1.584,0,2.839-0.539,3.766-1.621
			c0.927-1.081,1.39-2.548,1.39-4.401V62.858h3.417V74.21c0,2.916-0.802,5.161-2.403,6.735c-1.604,1.573-3.659,2.36-6.17,2.36
			c-2.51,0-4.565-0.787-6.17-2.36c-1.602-1.574-2.402-3.819-2.402-6.735V62.858h3.417v11.209
			C138.758,75.921,139.221,77.388,140.148,78.469"/>
		<polygon fill="#FFFFFF" points="173.021,62.858 176.438,62.858 176.438,83.103 172.73,83.103 161.262,68.332 161.262,83.103 
			157.844,83.103 157.844,62.858 161.262,62.858 173.021,77.977 		"/>
		<polygon fill="#FFFFFF" points="189.992,83.103 189.992,62.858 193.41,62.858 193.41,79.858 202.648,79.858 202.648,83.103 		"/>
		<rect x="206.386" y="62.858" fill="#FFFFFF" width="3.417" height="20.244"/>
		<polygon fill="#FFFFFF" points="229.641,62.858 229.641,66.073 218.838,66.073 218.838,71.431 228.541,71.431 228.541,74.473 
			218.838,74.473 218.838,79.889 229.988,79.889 229.988,83.103 215.42,83.103 215.42,62.858 		"/>
		<polygon fill="#FFFFFF" points="249.539,62.858 252.957,62.858 252.957,83.103 249.249,83.103 237.78,68.332 237.78,83.103 
			234.362,83.103 234.362,62.858 237.78,62.858 249.539,77.977 		"/>
		<polygon fill="#FFFFFF" points="269.928,66.045 269.928,71.604 278.907,71.604 278.907,74.762 269.928,74.762 269.928,83.103 
			266.51,83.103 266.51,62.858 280.006,62.858 279.979,66.045 		"/>
		<path fill="#FFFFFF" d="M300.945,80.309c-2.047,1.996-4.575,2.998-7.587,2.998c-3.013,0-5.543-1.002-7.589-2.998
			c-2.047-1.999-3.07-4.49-3.07-7.474s1.023-5.473,3.07-7.472c2.046-1.998,4.576-2.997,7.589-2.997c3.012,0,5.54,0.999,7.587,2.997
			c2.048,1.999,3.07,4.488,3.07,7.472S302.993,78.31,300.945,80.309 M298.441,67.637c-1.381-1.428-3.076-2.143-5.083-2.143
			c-2.008,0-3.703,0.715-5.083,2.143c-1.38,1.43-2.07,3.162-2.07,5.198c0,2.039,0.69,3.771,2.07,5.2
			c1.38,1.428,3.075,2.145,5.083,2.145c2.007,0,3.702-0.717,5.083-2.145c1.379-1.43,2.07-3.161,2.07-5.2
			C300.512,70.799,299.82,69.066,298.441,67.637"/>
		<path fill="#FFFFFF" d="M324.494,69.433c0,3.341-1.458,5.443-4.373,6.313l5.301,7.356h-4.345l-4.838-6.804h-4.49v6.804h-3.417
			V62.858h7.531c3.09,0,5.301,0.521,6.633,1.563S324.494,67.135,324.494,69.433 M319.947,72.3c0.695-0.599,1.043-1.561,1.043-2.883
			c0-1.321-0.358-2.23-1.072-2.72c-0.715-0.493-1.988-0.738-3.824-0.738h-4.345v7.239h4.259
			C317.938,73.198,319.252,72.9,319.947,72.3"/>
		<polygon fill="#FFFFFF" points="336.774,65.986 336.774,83.103 333.355,83.103 333.355,65.986 327.217,65.986 327.217,62.858 
			342.915,62.858 342.915,65.986 		"/>
		<polygon fill="#FFFFFF" points="368.777,62.858 368.777,66.073 357.974,66.073 357.974,71.431 367.677,71.431 367.677,74.473 
			357.974,74.473 357.974,79.889 369.123,79.889 369.123,83.103 354.557,83.103 354.557,62.858 		"/>
		<polygon fill="#FFFFFF" points="388.674,62.858 392.092,62.858 392.092,83.103 388.385,83.103 376.915,68.332 376.915,83.103 
			373.498,83.103 373.498,62.858 376.915,62.858 388.674,77.977 		"/>
		<polygon fill="#FFFFFF" points="405.356,65.986 405.356,83.103 401.938,83.103 401.938,65.986 395.799,65.986 395.799,62.858 
			411.496,62.858 411.496,65.986 		"/>
		<path fill="#FFFFFF" d="M431.364,69.433c0,3.341-1.458,5.443-4.373,6.313l5.301,7.356h-4.345l-4.836-6.804h-4.49v6.804h-3.418
			V62.858h7.531c3.089,0,5.3,0.521,6.633,1.563C430.698,65.465,431.364,67.135,431.364,69.433 M426.817,72.3
			c0.694-0.599,1.043-1.561,1.043-2.883c0-1.321-0.358-2.23-1.071-2.72c-0.715-0.493-1.989-0.738-3.824-0.738h-4.344v7.239h4.258
			C424.809,73.198,426.123,72.9,426.817,72.3"/>
		<polygon fill="#FFFFFF" points="450.509,62.858 450.509,66.073 439.705,66.073 439.705,71.431 449.408,71.431 449.408,74.473 
			439.705,74.473 439.705,79.889 450.857,79.889 450.857,83.103 436.288,83.103 436.288,62.858 		"/>
		<polygon fill="#FFFFFF" points="478.341,62.858 481.758,62.858 481.758,83.103 478.05,83.103 466.582,68.332 466.582,83.103 
			463.164,83.103 463.164,62.858 466.582,62.858 478.341,77.977 		"/>
		<path fill="#FFFFFF" d="M504.32,80.309c-2.046,1.996-4.576,2.998-7.588,2.998s-5.541-1.002-7.588-2.998
			c-2.048-1.999-3.069-4.49-3.069-7.474s1.021-5.473,3.069-7.472c2.047-1.998,4.576-2.997,7.588-2.997s5.542,0.999,7.588,2.997
			c2.047,1.999,3.07,4.488,3.07,7.472S506.367,78.31,504.32,80.309 M501.816,67.637c-1.381-1.428-3.076-2.143-5.084-2.143
			s-3.702,0.715-5.082,2.143c-1.381,1.43-2.071,3.162-2.071,5.198c0,2.039,0.69,3.771,2.071,5.2c1.38,1.428,3.074,2.145,5.082,2.145
			s3.703-0.717,5.084-2.145c1.379-1.43,2.07-3.161,2.07-5.2C503.887,70.799,503.195,69.066,501.816,67.637"/>
		<path fill="#FFFFFF" d="M516.252,78.469c0.928,1.082,2.183,1.621,3.766,1.621c1.582,0,2.837-0.539,3.766-1.621
			c0.928-1.081,1.39-2.548,1.39-4.401V62.858h3.419V74.21c0,2.916-0.803,5.161-2.404,6.735c-1.604,1.573-3.66,2.36-6.17,2.36
			s-4.566-0.787-6.169-2.36c-1.603-1.574-2.403-3.819-2.403-6.735V62.858h3.418v11.209
			C514.863,75.921,515.324,77.388,516.252,78.469"/>
		<path fill="#FFFFFF" d="M540.074,65.522c-0.994,0-1.81,0.202-2.447,0.607c-0.637,0.407-0.956,1.02-0.956,1.84
			s0.319,1.449,0.956,1.882c0.638,0.436,1.994,0.902,4.07,1.405c2.074,0.502,3.639,1.207,4.69,2.114
			c1.054,0.908,1.579,2.246,1.579,4.012c0,1.768-0.666,3.2-1.999,4.301c-1.331,1.102-3.079,1.65-5.242,1.65
			c-3.169,0-5.977-1.089-8.428-3.271l2.144-2.578c2.046,1.776,4.17,2.662,6.371,2.662c1.101,0,1.975-0.233,2.622-0.706
			c0.646-0.475,0.97-1.104,0.97-1.884c0-0.782-0.304-1.39-0.912-1.825c-0.608-0.433-1.656-0.829-3.143-1.188
			c-1.486-0.356-2.617-0.685-3.389-0.985c-0.772-0.298-1.459-0.688-2.058-1.171c-1.196-0.907-1.795-2.298-1.795-4.172
			c0-1.872,0.681-3.316,2.042-4.329c1.361-1.015,3.046-1.521,5.055-1.521c1.293,0,2.576,0.211,3.853,0.637
			c1.274,0.425,2.374,1.024,3.302,1.797l-1.825,2.576c-0.599-0.54-1.409-0.984-2.433-1.331
			C542.077,65.697,541.068,65.522,540.074,65.522"/>
	</g>
	<polygon fill="#FFFFFF" points="47.548,55.639 43.222,55.639 43.222,43.437 37.98,54.03 35.401,54.03 30.188,43.437 30.188,55.639 
		25.861,55.639 25.861,36.255 31.713,36.255 36.704,46.904 41.725,36.255 47.548,36.255 	"/>
	<path fill="#FFFFFF" d="M77.982,55.861c-2.987,0-5.444-0.943-7.376-2.828c-1.933-1.887-2.898-4.266-2.898-7.141
		c0-2.875,0.985-5.272,2.955-7.197c1.967-1.922,4.376-2.884,7.222-2.884c3.18,0,5.843,1.211,7.986,3.634l-2.689,3.051
		c-1.367-1.703-3.068-2.553-5.102-2.553c-1.628,0-3.018,0.532-4.173,1.596c-1.154,1.062-1.733,2.496-1.733,4.298
		c0,1.801,0.544,3.248,1.638,4.339c1.09,1.091,2.412,1.636,3.962,1.636c2.128,0,3.865-0.84,5.214-2.522l2.772,2.856
		C83.558,54.622,80.967,55.861,77.982,55.861"/>
	<path fill="#FFFFFF" d="M66.965,54.131c-1.092-1.02-1.989-1.893-2.698-2.619c0.587-0.928,1.115-2.003,1.579-3.227l0.035-0.089
		l-2.246-1.584l-0.047,0.163c-0.307,1.045-0.729,1.965-1.265,2.765c-0.916-0.95-2.101-2.318-3.562-4.106
		c2.898-1.595,4.359-3.288,4.38-5.08h0.001v-0.043c0.001-1.351-0.513-2.4-1.532-3.149c-1.024-0.749-2.267-1.121-3.725-1.121
		c-1.46,0-2.729,0.392-3.806,1.177s-1.615,1.909-1.615,3.369c0,0.839,0.148,1.532,0.452,2.082c0.302,0.546,0.826,1.249,1.574,2.108
		h-0.001c-2.991,1.605-4.489,3.439-4.491,5.502c0,0,0.001,0.02,0.004,0.027c-0.004,1.708,0.626,3.073,1.884,4.067
		c1.262,0.997,2.785,1.493,4.575,1.493c2.408,0,4.416-0.739,6.025-2.218l2.52,2.491l2.053-1.917L66.965,54.131z M56.14,38.947
		l0.04,0.047v-0.001l-0.04-0.047c0.502-0.399,1.078-0.602,1.728-0.604h-0.011l0.028-0.001c0.634,0.001,1.207,0.188,1.712,0.56
		c0.515,0.376,0.773,0.959,0.773,1.72v0.001l-0.002,0.006h-0.024l0.026,0.014c-0.021,0.956-1.107,1.918-3.223,2.974l-0.044,0.018
		l-0.028-0.036h-0.001c-0.622-0.752-1.058-1.341-1.315-1.769c-0.256-0.429-0.388-0.907-0.386-1.452l-0.003-0.019
		C55.374,39.822,55.636,39.343,56.14,38.947z M60.553,51.667c-1.304,1.065-2.54,1.602-3.709,1.603
		c-1.159-0.001-2.095-0.264-2.803-0.793c-0.703-0.527-1.064-1.219-1.064-2.055v-0.006c0-1.368,1.058-2.606,3.126-3.724l0.043-0.024
		l0.033,0.039c1.075,1.313,2.535,2.937,4.379,4.871l0.01,0.011l0.039,0.036L60.553,51.667z"/>
</g>
</svg>
