<?xml version="1.0" encoding="utf-8"?>
<!-- Generator: Adobe Illustrator 15.0.0, SVG Export Plug-In . SVG Version: 6.00 Build 0)  -->
<!DOCTYPE svg PUBLIC "-//W3C//DTD SVG 1.1//EN" "http://www.w3.org/Graphics/SVG/1.1/DTD/svg11.dtd">
<svg version="1.1" id="Calque_1" xmlns="http://www.w3.org/2000/svg" xmlns:xlink="http://www.w3.org/1999/xlink" x="0px" y="0px"
	 width="566.93px" height="99.67px" viewBox="0 0 566.93 99.67" enable-background="new 0 0 566.93 99.67" xml:space="preserve">
<g>
	<g>
		<g>
			<path fill="#1A4C95" d="M103.281,42.116c-0.109-5.977-0.826-12.183-2.649-18.135c-1.798-5.733-4.867-12.127-11.003-16.694
				l-0.14-0.099l-0.042-0.03c-1.396-0.967-2.834-1.763-4.297-2.432l-1.267,17.662c5.252,5.667,8.596,13.026,8.607,21.119v0.247
				l-0.002,0.022c-0.065,9.858-5.057,18.586-12.433,24.557c-7.437,6.044-17.382,9.597-28.2,9.624L51.7,77.959l-0.039-0.002h-0.003
				c-10.8-0.022-20.714-3.545-28.141-9.555c-7.439-5.993-12.465-14.791-12.479-24.737v-0.011v-0.05v-0.017
				c0.001-9.94,5.01-18.74,12.434-24.747c7.407-6.015,17.293-9.562,28.072-9.624c0.102-0.002,0.183-0.002,0.22-0.002
				c0.042,0,0.081,0.001,0.091,0.001c3.413,0.001,6.726,0.366,9.897,1.038l16.43-7.853c-2.035-0.484-4.089-0.852-6.142-1.191
				c-6.201-0.92-13.125-1.29-20.167-1.197c-7.846,0.132-15.819,0.84-23.129,2.352c-6.729,1.513-14.015,3.456-19.901,9.156
				l-0.136,0.136l-0.062,0.065l-0.007,0.014c-4.455,4.75-6.215,10.409-7.282,15.278l-0.009,0.064
				C0.279,32.22-0.064,37.604,0.01,42.931c0.195,8.965,1.422,17.834,4.425,25.213c0.99,2.345,2.489,5.269,5.237,7.979
				c5.41,5.094,12.072,7.557,18.656,9.162l1.146,14.388l14.306-12.19c2.827,0.164,5.673,0.225,8.51,0.183
				c7.786-0.125,15.53-0.983,22.533-2.693l1.06-0.264l0.058-0.036c6.386-1.713,12.92-4.169,18.138-9.349l0.124-0.115l0.103-0.115
				c4.379-4.748,6.055-10.369,7.287-15.502C102.791,54.197,103.367,48.225,103.281,42.116"/>
			<path fill="#D0212C" d="M76.46,25.238l1.36-14.429L62.398,17.8c-3.36-0.913-6.951-1.413-10.688-1.403
				c-18.451,0.038-33.389,12.214-33.355,27.197c0.029,14.988,15.015,27.104,33.464,27.064c18.454-0.035,33.389-12.214,33.358-27.197
				C85.161,36.436,81.862,30.046,76.46,25.238"/>
			<path fill="#1A4C95" d="M127.649,33.409l-9.802-20.392H109.3v32.471h5.483V20.123l11.288,22.532h3.065l11.335-22.532v25.365
				h5.482V13.017h-8.502L127.649,33.409z M162.443,13.017l-14.308,32.471h5.854l3.253-7.387h16.259l3.253,7.387h5.853
				l-14.309-32.471H162.443z M159.472,33.039l5.901-13.38l5.9,13.38H159.472z M184.788,45.488h5.482V13.015h-5.482V45.488z
				 M222.884,23.561c0-3.685-1.07-6.364-3.205-8.037c-2.139-1.671-5.686-2.507-10.64-2.507h-12.078v32.471h5.482V34.572h7.198
				l7.76,10.917h6.968l-8.503-11.8C220.545,32.295,222.884,28.92,222.884,23.561 M209.271,29.6h-6.827V17.987h6.966
				c2.941,0,4.986,0.395,6.134,1.184c1.145,0.791,1.718,2.247,1.718,4.367c0,2.122-0.557,3.663-1.672,4.622
				C214.475,29.121,212.368,29.6,209.271,29.6 M233.938,31.646h15.562v-4.879h-15.562v-8.594h17.328v-5.155h-22.811v32.471h23.368
				v-5.155h-17.886V31.646z M276.47,29.879c-1.69-1.455-4.197-2.586-7.527-3.393c-3.33-0.802-5.505-1.555-6.527-2.252
				c-1.023-0.696-1.533-1.703-1.533-3.02c0-1.316,0.51-2.299,1.533-2.949c1.022-0.65,2.33-0.977,3.924-0.977
				c1.597,0,3.214,0.279,4.856,0.836c1.642,0.557,2.94,1.27,3.903,2.136l2.925-4.135c-1.485-1.238-3.251-2.196-5.295-2.879
				c-2.044-0.681-4.103-1.022-6.178-1.022c-3.222,0-5.925,0.813-8.107,2.439c-2.184,1.625-3.274,3.94-3.274,6.945
				c0,3.004,0.958,5.233,2.88,6.69c0.96,0.775,2.059,1.402,3.298,1.88c1.239,0.481,3.052,1.006,5.436,1.58
				c2.385,0.573,4.064,1.209,5.042,1.906c0.975,0.697,1.462,1.671,1.462,2.926c0,1.253-0.52,2.261-1.557,3.02
				c-1.038,0.759-2.438,1.138-4.205,1.138c-3.53,0-6.937-1.423-10.219-4.273l-3.438,4.135c3.932,3.5,8.439,5.249,13.518,5.249
				c3.469,0,6.271-0.883,8.408-2.648s3.207-4.064,3.207-6.899C279.001,33.48,278.157,31.335,276.47,29.879"/>
			<path fill="#D0212C" d="M330.668,17.616c1.858,0,3.476,0.293,4.856,0.881c1.377,0.591,2.84,1.626,4.391,3.113l3.482-3.811
				c-3.376-3.717-7.581-5.574-12.611-5.574c-5.034,0-9.199,1.61-12.497,4.832c-3.298,3.22-4.946,7.246-4.946,12.078
				c0,4.831,1.616,8.826,4.853,11.986c3.237,3.159,7.309,4.738,12.217,4.738s9.082-1.904,12.521-5.715l-3.529-3.623
				c-1.488,1.394-2.915,2.409-4.275,3.043c-1.362,0.635-2.991,0.95-4.878,0.95c-3.036,0-5.662-1.104-7.876-3.32
				c-2.216-2.213-3.321-4.97-3.321-8.269s1.115-6.008,3.346-8.13C324.63,18.676,327.386,17.616,330.668,17.616 M347.298,45.488
				h5.482V13.015h-5.482V45.488z M356.405,18.032h9.847v27.456h5.482V18.032h9.848v-5.015h-25.177V18.032z M399.329,12.226
				c-4.833,0-8.889,1.603-12.172,4.808c-3.283,3.206-4.924,7.2-4.924,11.986c0,4.784,1.641,8.779,4.924,11.986
				c3.283,3.205,7.339,4.806,12.172,4.806c4.832,0,8.888-1.601,12.17-4.806c3.283-3.207,4.926-7.202,4.926-11.986
				c0-4.786-1.643-8.781-4.926-11.986C408.217,13.829,404.161,12.226,399.329,12.226 M407.479,37.359
				c-2.213,2.292-4.931,3.437-8.15,3.437c-3.222,0-5.939-1.146-8.151-3.437c-2.217-2.291-3.323-5.071-3.323-8.338
				c0-3.269,1.106-6.048,3.323-8.34c2.212-2.29,4.93-3.436,8.151-3.436c3.22,0,5.938,1.146,8.15,3.436
				c2.217,2.292,3.323,5.071,3.323,8.34C410.803,32.288,409.696,35.068,407.479,37.359 M429.943,27.79l-8.873-14.772h-5.994
				l12.079,19.649v12.822h5.574V32.667l12.078-19.649h-5.994L429.943,27.79z M452.101,31.646h15.564v-4.879h-15.564v-8.594h17.329
				v-5.155h-22.81v32.471h23.367v-5.155h-17.887V31.646z M499.021,37.267l-18.862-24.25h-5.48v32.471h5.48V21.796l18.397,23.692
				h5.946V13.017h-5.481V37.267z M531.146,29.879c-1.689-1.455-4.197-2.586-7.526-3.393c-3.329-0.802-5.506-1.555-6.527-2.252
				c-1.022-0.696-1.531-1.703-1.531-3.02c0-1.316,0.509-2.299,1.531-2.949c1.021-0.65,2.331-0.977,3.927-0.977
				c1.593,0,3.211,0.279,4.854,0.836c1.641,0.557,2.942,1.27,3.902,2.136l2.926-4.135c-1.486-1.238-3.252-2.196-5.296-2.879
				c-2.042-0.681-4.103-1.022-6.177-1.022c-3.222,0-5.924,0.813-8.105,2.439c-2.186,1.625-3.277,3.94-3.277,6.945
				c0,3.004,0.96,5.233,2.88,6.69c0.961,0.775,2.06,1.402,3.3,1.88c1.237,0.481,3.05,1.006,5.435,1.58
				c2.384,0.573,4.065,1.209,5.041,1.906c0.976,0.697,1.462,1.671,1.462,2.926c0,1.253-0.52,2.261-1.556,3.02
				c-1.039,0.759-2.438,1.138-4.204,1.138c-3.53,0-6.938-1.423-10.221-4.273l-3.438,4.135c3.933,3.5,8.44,5.249,13.519,5.249
				c3.47,0,6.273-0.883,8.41-2.648c2.136-1.765,3.204-4.064,3.204-6.899C533.677,33.48,532.833,31.335,531.146,29.879"/>
			<polygon fill="#718489" points="294.234,26.489 294.234,29.52 284.046,29.52 284.046,34.574 293.196,34.574 293.196,37.442 
				284.046,37.442 284.046,42.55 294.562,42.55 294.562,45.583 280.823,45.583 280.823,26.489 			"/>
			<polygon fill="#718489" points="305.898,29.438 305.898,45.583 302.675,45.583 302.675,29.438 296.885,29.438 296.885,26.489 
				311.688,26.489 311.688,29.438 			"/>
			<rect x="109.063" y="53.259" fill="#718489" width="457.629" height="29.086"/>
			<path fill="#FFFFFF" d="M133.811,73.828c0.94,1.097,2.213,1.645,3.82,1.645c1.607,0,2.88-0.548,3.82-1.645
				c0.94-1.098,1.41-2.585,1.41-4.466V57.991h3.467v11.516c0,2.959-0.813,5.236-2.438,6.833c-1.627,1.597-3.713,2.396-6.26,2.396
				c-2.546,0-4.632-0.799-6.259-2.396c-1.625-1.597-2.438-3.874-2.438-6.833V57.991h3.468v11.371
				C132.401,71.243,132.871,72.73,133.811,73.828"/>
			<polygon fill="#FFFFFF" points="167.162,57.991 170.629,57.991 170.629,78.529 166.867,78.529 155.232,63.544 155.232,78.529 
				151.765,78.529 151.765,57.991 155.232,57.991 167.162,73.328 			"/>
			<polygon fill="#FFFFFF" points="184.38,78.529 184.38,57.991 187.848,57.991 187.848,75.238 197.22,75.238 197.22,78.529 			"/>
			<rect x="201.012" y="57.991" fill="#FFFFFF" width="3.468" height="20.538"/>
			<polygon fill="#FFFFFF" points="224.605,57.991 224.605,61.252 213.646,61.252 213.646,66.688 223.489,66.688 223.489,69.773 
				213.646,69.773 213.646,75.269 224.958,75.269 224.958,78.529 210.178,78.529 210.178,57.991 			"/>
			<polygon fill="#FFFFFF" points="244.792,57.991 248.26,57.991 248.26,78.529 244.498,78.529 232.862,63.544 232.862,78.529 
				229.396,78.529 229.396,57.991 232.862,57.991 244.792,73.328 			"/>
			<polygon fill="#FFFFFF" points="265.478,61.223 265.478,66.864 274.588,66.864 274.588,70.067 265.478,70.067 265.478,78.529 
				262.011,78.529 262.011,57.991 275.703,57.991 275.675,61.223 			"/>
			<path fill="#FFFFFF" d="M296.946,75.694c-2.076,2.025-4.642,3.042-7.697,3.042s-5.623-1.017-7.699-3.042
				c-2.076-2.027-3.115-4.555-3.115-7.582c0-3.026,1.039-5.553,3.115-7.58s4.644-3.041,7.699-3.041s5.621,1.014,7.697,3.041
				c2.078,2.027,3.115,4.554,3.115,7.58C300.062,71.14,299.024,73.667,296.946,75.694 M294.405,62.839
				c-1.4-1.449-3.119-2.175-5.156-2.175s-3.757,0.726-5.156,2.175c-1.4,1.45-2.102,3.208-2.102,5.273
				c0,2.068,0.701,3.825,2.102,5.275c1.399,1.449,3.119,2.176,5.156,2.176s3.756-0.727,5.156-2.176
				c1.4-1.45,2.102-3.207,2.102-5.275C296.507,66.047,295.806,64.289,294.405,62.839"/>
			<path fill="#FFFFFF" d="M320.838,64.661c0,3.389-1.479,5.522-4.437,6.405l5.377,7.463h-4.407l-4.909-6.903h-4.555v6.903h-3.467
				V57.991h7.641c3.135,0,5.378,0.528,6.73,1.586C320.162,60.636,320.838,62.329,320.838,64.661 M316.225,67.569
				c0.705-0.606,1.058-1.583,1.058-2.925c0-1.341-0.363-2.263-1.087-2.76c-0.726-0.5-2.018-0.749-3.88-0.749h-4.408v7.345h4.321
				C314.185,68.48,315.52,68.178,316.225,67.569"/>
			<polygon fill="#FFFFFF" points="333.297,61.164 333.297,78.529 329.828,78.529 329.828,61.164 323.6,61.164 323.6,57.991 
				339.526,57.991 339.526,61.164 			"/>
			<polygon fill="#FFFFFF" points="365.765,57.991 365.765,61.252 354.804,61.252 354.804,66.688 364.648,66.688 364.648,69.773 
				354.804,69.773 354.804,75.269 366.116,75.269 366.116,78.529 351.337,78.529 351.337,57.991 			"/>
			<polygon fill="#FFFFFF" points="385.951,57.991 389.418,57.991 389.418,78.529 385.657,78.529 374.021,63.544 374.021,78.529 
				370.554,78.529 370.554,57.991 374.021,57.991 385.951,73.328 			"/>
			<polygon fill="#FFFFFF" points="402.876,61.164 402.876,78.529 399.407,78.529 399.407,61.164 393.179,61.164 393.179,57.991 
				409.105,57.991 409.105,61.164 			"/>
			<path fill="#FFFFFF" d="M429.262,64.661c0,3.389-1.479,5.522-4.437,6.405l5.378,7.463h-4.408l-4.906-6.903h-4.556v6.903h-3.467
				V57.991h7.64c3.134,0,5.378,0.528,6.729,1.586C428.587,60.636,429.262,62.329,429.262,64.661 M424.649,67.569
				c0.704-0.606,1.058-1.583,1.058-2.925c0-1.341-0.363-2.263-1.087-2.76c-0.726-0.5-2.018-0.749-3.879-0.749h-4.408v7.345h4.319
				C422.611,68.48,423.944,68.178,424.649,67.569"/>
			<polygon fill="#FFFFFF" points="448.685,57.991 448.685,61.252 437.725,61.252 437.725,66.688 447.568,66.688 447.568,69.773 
				437.725,69.773 437.725,75.269 449.038,75.269 449.038,78.529 434.257,78.529 434.257,57.991 			"/>
			<polygon fill="#FFFFFF" points="476.921,57.991 480.388,57.991 480.388,78.529 476.626,78.529 464.991,63.544 464.991,78.529 
				461.524,78.529 461.524,57.991 464.991,57.991 476.921,73.328 			"/>
			<path fill="#FFFFFF" d="M503.278,75.694c-2.075,2.025-4.642,3.042-7.697,3.042s-5.622-1.017-7.699-3.042
				c-2.077-2.027-3.113-4.555-3.113-7.582c0-3.026,1.036-5.553,3.113-7.58s4.644-3.041,7.699-3.041s5.622,1.014,7.697,3.041
				c2.078,2.027,3.115,4.554,3.115,7.58C506.394,71.14,505.356,73.667,503.278,75.694 M500.737,62.839
				c-1.4-1.449-3.119-2.175-5.156-2.175c-2.038,0-3.757,0.726-5.157,2.175c-1.4,1.45-2.101,3.208-2.101,5.273
				c0,2.068,0.7,3.825,2.101,5.275c1.4,1.449,3.119,2.176,5.157,2.176c2.037,0,3.756-0.727,5.156-2.176
				c1.4-1.45,2.102-3.207,2.102-5.275C502.839,66.047,502.138,64.289,500.737,62.839"/>
			<path fill="#FFFFFF" d="M515.385,73.828c0.94,1.097,2.214,1.645,3.819,1.645s2.879-0.548,3.82-1.645
				c0.941-1.098,1.41-2.585,1.41-4.466V57.991h3.468v11.516c0,2.959-0.813,5.236-2.438,6.833c-1.627,1.597-3.713,2.396-6.26,2.396
				c-2.546,0-4.633-0.799-6.259-2.396s-2.438-3.874-2.438-6.833V57.991h3.468v11.371C513.975,71.243,514.442,72.73,515.385,73.828"
				/>
			<path fill="#FFFFFF" d="M539.553,60.693c-1.009,0-1.836,0.205-2.483,0.616c-0.646,0.413-0.97,1.034-0.97,1.867
				c0,0.832,0.324,1.471,0.97,1.909c0.647,0.441,2.023,0.915,4.129,1.425s3.691,1.225,4.76,2.146
				c1.068,0.922,1.602,2.278,1.602,4.069c0,1.794-0.676,3.248-2.027,4.363c-1.352,1.118-3.124,1.676-5.318,1.676
				c-3.215,0-6.064-1.105-8.551-3.32l2.174-2.615c2.076,1.803,4.231,2.701,6.465,2.701c1.116,0,2.003-0.236,2.66-0.716
				c0.654-0.482,0.983-1.12,0.983-1.912c0-0.793-0.308-1.41-0.926-1.852c-0.616-0.438-1.68-0.841-3.188-1.204
				c-1.508-0.362-2.654-0.695-3.438-1c-0.783-0.303-1.479-0.699-2.087-1.188c-1.214-0.92-1.821-2.331-1.821-4.231
				c0-1.899,0.691-3.365,2.072-4.394s3.09-1.542,5.128-1.542c1.312,0,2.614,0.215,3.908,0.646c1.292,0.432,2.408,1.04,3.35,1.824
				l-1.852,2.612c-0.608-0.547-1.431-0.998-2.468-1.351C541.585,60.871,540.562,60.693,539.553,60.693"/>
		</g>
		<polygon fill="#FFFFFF" points="44.857,52.951 40.784,52.951 40.784,41.465 35.851,51.438 33.422,51.438 28.515,41.465 
			28.515,52.951 24.442,52.951 24.442,34.704 29.951,34.704 34.649,44.729 39.375,34.704 44.857,34.704 		"/>
		<path fill="#FFFFFF" d="M73.506,53.161c-2.812,0-5.125-0.889-6.943-2.663c-1.819-1.776-2.729-4.016-2.729-6.722
			c0-2.706,0.927-4.963,2.781-6.775c1.852-1.809,4.12-2.715,6.798-2.715c2.993,0,5.5,1.14,7.518,3.421l-2.531,2.872
			c-1.287-1.603-2.888-2.403-4.803-2.403c-1.532,0-2.841,0.501-3.928,1.502c-1.087,1-1.632,2.35-1.632,4.046
			c0,1.695,0.513,3.058,1.542,4.084c1.026,1.026,2.271,1.54,3.73,1.54c2.003,0,3.638-0.791,4.908-2.375l2.609,2.689
			C78.755,51.994,76.316,53.161,73.506,53.161"/>
		<path fill="#FFFFFF" d="M63.135,51.532c-1.029-0.96-1.873-1.782-2.541-2.465c0.553-0.874,1.05-1.886,1.487-3.038l0.033-0.083
			L60,44.454l-0.044,0.153c-0.288,0.984-0.687,1.85-1.19,2.603c-0.862-0.894-1.978-2.182-3.354-3.865
			c2.729-1.501,4.104-3.095,4.123-4.782h0.001v-0.041c0.001-1.271-0.482-2.259-1.442-2.964c-0.963-0.705-2.133-1.055-3.506-1.055
			c-1.374,0-2.569,0.369-3.583,1.108c-1.014,0.74-1.52,1.797-1.52,3.171c0,0.791,0.14,1.442,0.425,1.96
			c0.284,0.515,0.778,1.176,1.482,1.985h-0.001c-2.816,1.511-4.226,3.237-4.227,5.18c0,0,0.001,0.018,0.003,0.025
			c-0.003,1.608,0.589,2.893,1.773,3.829c1.188,0.938,2.622,1.405,4.307,1.405c2.267,0,4.157-0.695,5.672-2.087l2.372,2.345
			l1.933-1.805L63.135,51.532z M52.945,37.239l0.037,0.044v-0.001L52.945,37.239c0.473-0.377,1.015-0.568,1.626-0.569h-0.01
			l0.026-0.001c0.597,0.001,1.136,0.177,1.612,0.527c0.484,0.354,0.728,0.903,0.728,1.619v0.001l-0.002,0.006h-0.022l0.024,0.014
			c-0.02,0.9-1.042,1.806-3.034,2.799l-0.042,0.017l-0.026-0.034h-0.001c-0.585-0.708-0.996-1.263-1.238-1.665
			c-0.241-0.403-0.364-0.854-0.363-1.366l-0.002-0.019C52.224,38.062,52.471,37.611,52.945,37.239z M57.1,49.212
			c-1.228,1.002-2.391,1.507-3.491,1.509c-1.091-0.002-1.973-0.249-2.639-0.747c-0.663-0.496-1.002-1.148-1.002-1.934v-0.006
			c0-1.288,0.996-2.454,2.942-3.506l0.041-0.023l0.031,0.037c1.012,1.235,2.387,2.765,4.122,4.584l0.009,0.011l0.037,0.034
			L57.1,49.212z"/>
	</g>
	<g>
		<path fill="#718489" d="M536.873,42.671c0-1.64,1.142-2.817,2.71-2.817c1.604,0,2.71,1.141,2.71,2.817
			c0,1.605-1.069,2.817-2.745,2.817C537.979,45.488,536.873,44.276,536.873,42.671z"/>
		<path fill="#718489" d="M546.321,45.096V31.012h-2.354v-3.28h2.354v-0.749c0-2.246,0.605-4.492,2.104-5.919
			c1.283-1.212,2.995-1.676,4.528-1.676c1.177,0,2.104,0.214,2.782,0.428l-0.286,3.387c-0.499-0.178-1.069-0.321-1.89-0.321
			c-2.176,0-2.889,1.818-2.889,3.958v0.892h3.779v3.28h-3.744v14.084H546.321z"/>
		<path fill="#718489" d="M557.194,33.33c0-2.354-0.035-4.065-0.142-5.598h3.778l0.18,3.28h0.106
			c0.855-2.424,2.888-3.672,4.778-3.672c0.428,0,0.678,0.036,1.033,0.107v4.101c-0.392-0.071-0.784-0.107-1.318-0.107
			c-2.068,0-3.531,1.319-3.923,3.316c-0.071,0.392-0.106,0.855-0.106,1.319v9.021h-4.387V33.33z"/>
	</g>
</g>
</svg>
